<?xml version="1.0" encoding="utf-8"?>
<!-- Generator: Adobe Illustrator 23.0.0, SVG Export Plug-In . SVG Version: 6.00 Build 0)  -->
<svg version="1.1" id="Слой_1" xmlns="http://www.w3.org/2000/svg" xmlns:xlink="http://www.w3.org/1999/xlink" x="0px" y="0px"
	 viewBox="0 0 425.2 368.5" style="enable-background:new 0 0 425.2 368.5;" xml:space="preserve">
<path d="M356.1,170.9c-6.9-92.3-84.7-165.1-179-163.8C79.3,8.4,0.4,89.9,2.3,187.8C4.2,283.7,82.7,361.2,179,361.4
	c7,0,13.1-5,14-11.9c1-8.3-5.4-15.3-13.5-15.3c-85.4,0-154.3-71.8-149.7-158.1C33.9,99.8,95.7,38.3,171.9,34.5
	c81.5-4,149.9,57.5,156.9,136.4h-51.9c-12.2,0-18.4,14.8-9.7,23.5l66.2,66.1c5.4,5.4,14.1,5.4,19.4,0l66.2-66.1
	c8.7-8.7,2.5-23.5-9.7-23.5H356.1z"/>
</svg>
