<?xml version="1.0" encoding="utf-8"?>
<!-- Generator: Adobe Illustrator 23.0.0, SVG Export Plug-In . SVG Version: 6.00 Build 0)  -->
<svg version="1.1" id="Слой_1" xmlns="http://www.w3.org/2000/svg" xmlns:xlink="http://www.w3.org/1999/xlink" x="0px" y="0px"
	 viewBox="0 0 425.2 368.5" style="enable-background:new 0 0 425.2 368.5;" xml:space="preserve">
<path d="M69.1,170.9C76,78.7,153.8,5.9,248.1,7.1c97.8,1.3,176.7,82.8,174.8,180.7c-1.9,95.9-80.4,173.4-176.7,173.6
	c-7,0-13.1-5-14-11.9c-1-8.3,5.4-15.3,13.5-15.3c85.4,0,154.3-71.8,149.7-158.1c-4.1-76.2-65.9-137.7-142.1-141.5
	c-81.5-4-149.9,57.5-156.9,136.4h51.9c12.2,0,18.4,14.8,9.7,23.5l-66.2,66.1c-5.4,5.4-14.1,5.4-19.4,0L6.3,194.4
	c-8.7-8.7-2.5-23.5,9.7-23.5H69.1z"/>
</svg>
